<svg width="16" height="9" viewBox="0 0 16 9" fill="none" xmlns="http://www.w3.org/2000/svg">
<path d="M15.5487 0.861213C15.4441 0.755778 15.3197 0.672078 15.1826 0.614964C15.0455 0.557848 14.8984 0.528442 14.7499 0.528442C14.6014 0.528442 14.4544 0.557848 14.3173 0.614964C14.1802 0.672078 14.0557 0.755778 13.9512 0.861213L8.79867 6.01371C8.69409 6.11915 8.56966 6.20285 8.43257 6.25995C8.29548 6.31708 8.14842 6.34649 7.99992 6.34649C7.8514 6.34649 7.70436 6.31708 7.56727 6.25995C7.43017 6.20285 7.30575 6.11915 7.20117 6.01371L2.04867 0.861213C1.94409 0.755778 1.81966 0.672078 1.68257 0.614964C1.54548 0.557848 1.39842 0.528442 1.24991 0.528442C1.1014 0.528442 0.954357 0.557848 0.817266 0.614964C0.680174 0.672078 0.555747 0.755778 0.451164 0.861213C0.241631 1.07199 0.124023 1.35714 0.124023 1.65434C0.124023 1.95154 0.241631 2.23668 0.451164 2.44746L5.61492 7.61121C6.24773 8.24324 7.10554 8.59822 7.99992 8.59822C8.89429 8.59822 9.75211 8.24324 10.3849 7.61121L15.5487 2.44746C15.7582 2.23668 15.8758 1.95154 15.8758 1.65434C15.8758 1.35714 15.7582 1.07199 15.5487 0.861213Z" fill="#7A7C82"/>
</svg>
